HIERARCHY
ROOT root     
{
	OFFSET 0.0000 0.0000 0.0000
	CHANNELS 6 Xposition Yposition Zposition Zrotation Yrotation Xrotation
	JOINT pelvis   
	{
		OFFSET 0.0000 0.0000 0.0000
		CHANNELS 3 Zrotation Yrotation Xrotation
		JOINT thorax   
		{
			OFFSET 0.0000 23.0750 -5.0000
			CHANNELS 3 Zrotation Yrotation Xrotation
			JOINT rclavicle
			{
				OFFSET 0.0000 28.0009 0.0000
				CHANNELS 3 Zrotation Yrotation Xrotation
				JOINT rhumerus 
				{
					OFFSET -18.5725 5.5939 0.0000
					CHANNELS 3 Zrotation Yrotation Xrotation
					JOINT rradius  
					{
						OFFSET -24.8459 0.0000 0.0000
						CHANNELS 3 Zrotation Yrotation Xrotation
						JOINT rhand    
						{
							OFFSET -24.5477 0.0000 0.0000
							CHANNELS 3 Zrotation Yrotation Xrotation
							End Site
							{
								OFFSET -8.1826 0.0000 0.0000
							}
						}
					}
				}
			}
			JOINT lclavicle
			{
				OFFSET 0.0000 28.0009 0.0000
				CHANNELS 3 Zrotation Yrotation Xrotation
				JOINT lhumerus 
				{
					OFFSET 18.5725 5.5939 0.0000
					CHANNELS 3 Zrotation Yrotation Xrotation
					JOINT lradius  
					{
						OFFSET 24.8459 0.0000 0.0000
						CHANNELS 3 Zrotation Yrotation Xrotation
						JOINT lhand    
						{
							OFFSET 24.5477 0.0000 0.0000
							CHANNELS 3 Zrotation Yrotation Xrotation
							End Site
							{
								OFFSET 8.1826 0.0000 0.0000
							}
						}
					}
				}
			}
			JOINT head     
			{
				OFFSET 0.0000 35.2030 0.0000
				CHANNELS 3 Zrotation Yrotation Xrotation
				End Site
				{
					OFFSET 0.0000 11.7343 0.0000
				}
			}
		}
		JOINT rfemur   
		{
			OFFSET -8.2817 0.0000 0.0000
			CHANNELS 3 Zrotation Yrotation Xrotation
			JOINT rtibia   
			{
				OFFSET 0.0000 -43.3627 0.0000
				CHANNELS 3 Zrotation Yrotation Xrotation
				JOINT rfoot    
				{
					OFFSET 0.0000 -38.2947 0.0000
					CHANNELS 3 Zrotation Yrotation Xrotation
					JOINT rtoes    
					{
						OFFSET 0.0000 0.0000 16.6054
						CHANNELS 3 Zrotation Yrotation Xrotation
						End Site
						{
							OFFSET 0.0000 0.0000 5.5351
						}
					}
				}
			}
		}
		JOINT lfemur   
		{
			OFFSET 8.2817 0.0000 0.0000
			CHANNELS 3 Zrotation Yrotation Xrotation
			JOINT ltibia   
			{
				OFFSET 0.0000 -43.3627 0.0000
				CHANNELS 3 Zrotation Yrotation Xrotation
				JOINT lfoot    
				{
					OFFSET 0.0000 -38.2947 0.0000
					CHANNELS 3 Zrotation Yrotation Xrotation
					JOINT ltoes    
					{
						OFFSET 0.0000 0.0000 16.6054
						CHANNELS 3 Zrotation Yrotation Xrotation
						End Site
						{
							OFFSET 0.0000 0.0000 5.5351
						}
					}
				}
			}
		}
	}
}
MOTION
Frames: 15
Frame Time: .0333333
-17.341 86.56 11.071 81.5924 -83.8075 -60.7382 0 -0 0 2.4655 -7.71744 -11.1823 25.0687 -5.67774 -8.27001e-05 58.2524 10.4863 -10.5612 -0 52.0062 -0 -12.5743 5.58614 -0.615909 -24.323 10.3571 6.75748e-06 -25.3645 -6.25816 25.0772 4.7048e-07 -62.0961 -7.81515e-07 1.87555 2.68648 0.0440011 -24.1024 5.9448 -15.153 1.04318 -3.91184 -12.8934 -0 -0 20.411 -2.45825e-07 -4.90079 -0.443197 0.038 2.93813e-07 -35.4373 -3.95048 8.43949 -22.4041 -0 -0 53.4437 -0.000117683 18.1246 12.1141 3.92984 3.83653e-06 -39.95 
-18.675 86.969 10.994 88.1108 -83.6269 -67.1483 0 -0 0 1.469 -6.43434 -10.6397 24.6938 -5.40846 5.69669e-05 58.1123 10.8189 -7.6915 -0 51.943 -0 -11.1025 5.93526 -0.577398 -24.5637 10.2431 -3.3529e-05 -24.8071 -6.20548 24.855 0 -59.4555 0 1.14231 2.49449 0.0249004 -24.4002 6.10348 -15.8039 0.522911 -3.90419 -11.8119 -0 -0 19.3081 -2.60889e-06 -4.32511 1.64828 -0.124606 -2.08585e-06 -39.1333 -4.81482 8.08158 -23.8935 -0 -0 52.7543 -9.93709e-07 17.9457 11.0592 3.5551 -4.87243e-06 -40.1731 
-20.011 87.362 10.912 94.5227 -83.4029 -73.4572 0 -0 0 0.513297 -5.16484 -10.0786 24.2961 -5.13207 1.93552e-05 57.8572 11.2095 -4.63124 -0 52.0762 -0 -9.63519 6.33062 -0.534093 -24.7851 10.1222 -3.62053e-05 -24.3268 -6.10472 24.3878 0 -56.8824 0 0.555608 2.25791 0.0109003 -24.6003 6.26113 -16.5066 0.0257993 -3.86162 -10.7712 -0 -0 18.2407 2.71844e-06 -3.69152 3.81843 -0.246202 -1.15453e-06 -42.8139 -5.59362 7.67658 -25.3218 -0 -0 51.8655 4.92538e-05 17.5591 10.1006 3.17624 -3.31893e-05 -40.3015 
-21.349 87.733 10.823 100.582 -83.1466 -79.4065 0 -0 0 -0.411492 -3.9376 -9.53205 23.8892 -4.85335 3.51773e-05 57.4827 11.6502 -1.42021 -0 52.4288 -0 -8.19254 6.76433 -0.484995 -24.9752 10.0199 1.6807e-05 -23.9256 -5.97373 23.6835 0 -54.4024 0 0.157502 2.01989 0.00280003 -24.685 6.41701 -17.2353 -0.445803 -3.78777 -9.78979 -0 -0 17.2294 4.22578e-06 -3.01117 6.03261 -0.316794 -2.35749e-06 -46.2438 -6.27961 7.21409 -26.7024 -0 -0 50.7958 -2.59098e-05 16.9849 9.23746 2.80709 1.0275e-05 -40.4336 
-22.688 88.075 10.728 106.091 -82.8494 -84.7837 0 -0 0 -1.31288 -2.77896 -9.03291 23.4887 -4.57765 2.00684e-05 56.9796 12.1366 1.8918 -4.47853e-07 53.0128 -8.97994e-07 -6.78316 7.23116 -0.429094 -25.1231 9.94347 -5.91679e-05 -23.6015 -5.80455 22.7476 4.30734e-07 -52.0492 -8.82162e-07 -0.0205 1.81761 -0.000300007 -24.6483 6.56913 -17.9655 -0.887656 -3.69109 -8.88353 -0 -0 16.3016 -2.21486e-06 -2.30186 8.25379 -0.330598 4.68084e-06 -49.2306 -6.86928 6.69348 -28.0538 -0 -0 49.5687 3.96191e-05 16.2513 8.45324 2.45375 2.23057e-05 -40.5615 
-24.101 88.39 10.665 117.603 -82.0842 -96.3233 0 -0 0 -2.66553 -0.796102 -8.33849 23.2077 -4.294 -1.39051e-05 56.3151 12.7221 5.22334 -0 53.8201 -0 -5.41364 7.72889 -0.365994 -25.1775 9.88314 8.75985e-05 -23.3257 -5.6308 21.5476 0 -49.8448 0 0.0423003 1.67481 0.000600023 -24.4147 6.69348 -18.72 -1.73045 -2.72626 -7.96719 -0 -0 15.6605 4.01052e-06 -1.50437 10.37 -0.270893 6.12881e-06 -51.705 -7.7593 7.12422 -28.9774 -0 -0 47.9419 3.63122e-06 15.3482 7.65794 2.09474 -6.54272e-06 -40.7351 
-25.444 88.666 10.556 121.117 -81.6948 -99.6328 0 -0 0 -3.52786 0.155799 -8.02041 22.864 -4.03249 -1.06589e-05 55.5458 13.2966 8.54648 -0 54.8632 -0 -4.07077 8.24661 -0.293596 -25.2358 9.90863 -5.03561e-05 -23.1273 -5.42009 20.2123 0 -47.8212 0 0.358499 1.60788 0.0049999 -24.1219 6.83809 -19.3748 -2.09618 -2.6366 -7.24792 -0 -0 14.9622 -2.47429e-06 -0.808094 12.4996 -0.1749 5.29482e-07 -53.5881 -8.17087 6.51541 -30.3151 -0 -0 46.4502 2.27505e-05 14.3882 6.96085 1.7807 -1.85535e-06 -40.996 
-26.792 88.902 10.438 123.95 -81.3332 -102.22 0 -0 0 -4.36451 0.980906 -7.80703 22.5649 -3.78768 4.05828e-06 54.65 13.921 11.7869 -0 56.1114 -0 -2.77234 8.77538 -0.212795 -25.2528 10.002 6.78616e-05 -22.9731 -5.20037 18.7257 3.39452e-07 -45.9915 -7.99875e-07 0.917791 1.61575 0.0129002 -23.7058 6.97902 -19.9536 -2.40881 -2.5805 -6.6169 -0 -0 14.3906 -5.77542e-09 -0.166396 14.5405 -0.0418003 -5.57763e-07 -54.9679 -8.49658 5.88889 -31.6431 -0 -0 44.8206 -3.25914e-06 13.3693 6.29205 1.49212 5.32816e-06 -41.4826 
-28.151 89.097 10.314 126.163 -81.0144 -104.154 0 -0 0 -5.16987 1.67559 -7.70295 22.3181 -3.56215 6.83185e-06 53.6398 14.5909 14.8821 -0 57.5357 -0 -1.53146 9.29711 -0.124497 -25.2292 10.1131 1.54186e-05 -22.8652 -4.88777 17.0799 0 -44.4052 0 1.6834 1.68998 0.0248 -23.1772 7.11338 -20.4292 -2.66257 -2.58589 -6.05926 -0 -0 13.9411 3.76764e-07 0.395004 16.472 0.112 -3.28488e-07 -55.9775 -8.7474 5.26338 -32.9445 -0 -0 43.0298 -5.5521e-06 12.3345 5.67346 1.23847 1.69498e-05 -42.5759 
-29.526 89.248 10.181 127.833 -80.7663 -105.523 0 -0 0 -5.92709 2.23926 -7.69412 22.1193 -3.35547 7.34637e-09 52.5496 15.3004 17.7693 -5.80114e-07 59.1127 -1.023e-06 -0.351099 9.78372 -0.0300001 -25.1858 10.3202 3.35926e-05 -22.7679 -4.61512 15.3777 0 -43.0169 0 2.62435 1.80888 0.0414007 -22.5485 7.24034 -20.7903 -2.84924 -2.67376 -5.54962 -0 -0 13.595 4.29539e-07 0.852695 18.2832 0.267501 -4.92904e-06 -56.7888 -8.93463 4.66641 -34.198 -0 -0 41.0592 -8.38079e-06 11.3012 5.06964 1.0117 1.60417e-06 -43.9195 
-30.923 89.349 10.039 129.075 -80.5849 -106.461 0 -0 0 -6.61901 2.68283 -7.76479 21.9574 -3.17283 -7.1643e-06 51.4139 16.0398 20.4103 -7.54913e-07 60.8103 -4.42994e-07 0.750885 10.2058 0.0670986 -25.1324 10.6237 -5.12212e-05 -22.6768 -4.39088 13.6577 0 -41.8249 0 3.67982 1.9515 0.0627002 -21.835 7.35685 -21.0225 -2.96209 -2.85752 -5.05549 -0 -0 13.3285 3.47056e-06 1.19289 19.9709 0.407507 3.37243e-07 -57.5715 -9.06974 4.12246 -35.3737 -0 -0 38.8864 8.57423e-06 10.2897 4.50077 0.816191 -9.3438e-07 -45.5118 
-32.35 89.398 9.8855 129.966 -80.4875 -107.063 0 -0 0 -7.2333 3.03158 -7.90203 21.8244 -3.0213 1.20104e-05 50.2553 16.795 22.7842 -0 62.5915 -0 1.74778 10.5357 0.161198 -25.058 10.9157 8.98897e-05 -22.6058 -4.05128 11.8864 0 -40.8973 0 4.76343 2.10495 0.0876005 -21.0485 7.45343 -21.1057 -2.99922 -3.14156 -4.53919 -0 -0 13.1082 8.03985e-06 1.41634 21.5349 0.519986 3.01124e-06 -58.4694 -9.16424 3.65052 -36.4327 -0 -0 36.4805 1.559e-06 9.32469 4.04269 0.663198 -4.0531e-06 -47.6699 
-33.815 89.386 9.7202 130.652 -80.4742 -107.5 0 -0 0 -7.74932 3.30653 -8.07078 21.7011 -2.90851 -1.56795e-05 49.1169 17.5643 24.8804 -5.27391e-07 64.4339 -8.36922e-07 2.63654 10.7492 0.248103 -24.9837 11.2888 -0.000112464 -22.5295 -3.75924 10.17 2.71255e-07 -40.1632 -7.4197e-07 5.81543 2.25103 0.114302 -20.2035 7.52743 -21.0494 -2.95918 -3.51749 -3.95947 -0 -0 12.9075 3.89567e-06 1.54044 22.9812 0.601499 3.00746e-06 -59.5846 -9.23019 3.28253 -37.342 -0 -0 33.8607 4.85217e-07 8.39763 3.70393 0.546398 -4.30223e-06 -49.8967 
-35.322 89.309 9.5419 131.226 -80.5554 -107.885 0 -0 0 -8.15856 3.54138 -8.25176 21.5701 -2.83261 -3.02841e-06 48.0254 18.3204 26.6869 -0 66.3184 -0 3.41309 10.8313 0.323699 -24.8935 11.6437 -7.8544e-05 -22.4667 -3.36459 8.48072 0 -39.6842 0 6.75074 2.38847 0.140897 -19.3096 7.56819 -20.85 -2.84814 -3.96686 -3.27869 -0 -0 12.7011 -6.15837e-07 1.59999 24.3166 0.658999 2.71926e-06 -60.9512 -9.28153 3.04082 -38.0796 -0 -0 31.0644 2.08339e-06 7.5097 3.56447 0.469607 -9.38505e-07 -52.3163 
-36.876 89.158 9.3501 131.806 -80.7166 -108.361 0 -0 0 -8.45175 3.76211 -8.41379 21.4147 -2.80249 2.42073e-06 47.0036 19.0651 28.2126 -9.12774e-07 68.2263 -1.34749e-06 4.08384 10.7783 0.385406 -24.7927 12.0423 7.66519e-05 -22.4079 -2.98311 6.89643 0 -39.4029 0 7.52021 2.51454 0.1653 -18.3759 7.56905 -20.526 -2.67504 -4.46137 -2.46789 -0 -0 12.4761 4.50703e-06 1.64481 25.5476 0.709495 -3.89944e-06 -62.541 -9.3329 2.95402 -38.6427 -0 -0 28.1969 4.60778e-06 6.62916 3.62464 0.421005 5.42694e-06 -54.3648 
